<svg xmlns="http://www.w3.org/2000/svg" width="1600" height="900" viewBox="0 0 1600 900">
  <defs>
    <linearGradient id="bg" x1="0" y1="0" x2="1" y2="1">
      <stop offset="0%" stop-color="#0f172a" />
      <stop offset="100%" stop-color="#0b1222" />
    </linearGradient>
    <linearGradient id="accent" x1="0" y1="0" x2="1" y2="0">
      <stop offset="0%" stop-color="#06b6d4" />
      <stop offset="100%" stop-color="#3b82f6" />
    </linearGradient>
  </defs>
  <rect width="1600" height="900" fill="url(#bg)" />
  <rect x="140" y="160" width="1320" height="580" rx="26" fill="rgba(255,255,255,0.06)" stroke="rgba(255,255,255,0.12)" />
  <rect x="220" y="240" width="420" height="18" rx="9" fill="url(#accent)" />
  <rect x="220" y="280" width="520" height="12" rx="6" fill="rgba(255,255,255,0.16)" />
  <rect x="220" y="310" width="360" height="12" rx="6" fill="rgba(255,255,255,0.12)" />
  <path d="M980 440 C980 380 1040 360 1080 390 C1120 350 1200 360 1200 430 C1200 520 1080 590 1080 590 C1080 590 980 520 980 440" fill="rgba(59,130,246,0.22)" stroke="rgba(6,182,212,0.6)" stroke-width="6" />
  <polyline points="880,500 960,500 1000,430 1060,560 1120,470 1200,470" fill="none" stroke="rgba(6,182,212,0.8)" stroke-width="6" />
</svg>
